<svg width="667" height="376" xmlns="http://www.w3.org/2000/svg"><defs><filter x="-1.8%" y="-3.3%" width="103.6%" height="106.5%" filterUnits="objectBoundingBox" id="a"><feOffset dy="2" in="SourceAlpha" result="shadowOffsetOuter1"/><feGaussianBlur stdDeviation="2" in="shadowOffsetOuter1" result="shadowBlurOuter1"/><feColorMatrix values="0 0 0 0 0 0 0 0 0 0 0 0 0 0 0 0 0 0 0.5 0" in="shadowBlurOuter1" result="shadowMatrixOuter1"/><feMerge><feMergeNode in="shadowMatrixOuter1"/><feMergeNode in="SourceGraphic"/></feMerge></filter></defs><g filter="url(#a)" transform="translate(4 2)" fill="none" fill-rule="evenodd"><path d="M65.732 20.727v326.546c0 9.393 7.605 17 16.991 17h491.135c9.381 0 16.991-7.613 16.991-17V20.727c0-9.393-7.605-17-16.99-17H82.722c-9.381 0-16.99 7.613-16.99 17z" stroke="#000" stroke-width="6" fill="#000"/><path d="M0 358.009C0 356.899.892 356 2.003 356h271.701c1.106 0 2.86.286 3.64.545l-1.637-.545c.904.301 2.529.545 3.641.545h101.063c1.108 0 2.868-.215 3.954-.487l-1.715.43c1.076-.27 2.836-.488 3.942-.488h270.415c1.1 0 1.993.902 1.993 2.009v7.982c0 1.11-.9 2.009-2.01 2.009H2.01A2.01 2.01 0 010 365.991v-7.982z" fill="#000"/><path d="M375.357 364.182h-91.64c-4.642 0-8.437-3.618-8.717-8.182l2.182.545h104.709l2.182-.545c-.28 4.566-4.073 8.182-8.716 8.182z" fill="#FFF" opacity=".1"/></g></svg>