<svg width="211" height="400" xmlns="http://www.w3.org/2000/svg"><g fill-rule="nonzero" fill="none"><path d="M95.87 228L131 250l80-50-80-50-80 50a50 50 0 0144.87 28z" fill="#E83C61"/><path fill="#FFF" d="M51 100v100l80-50 80-50V0z"/><path d="M95.87 228c-10.867-22.178-36.298-33.1-59.864-25.708-23.565 7.39-38.203 30.88-34.457 55.292C5.295 281.995 26.303 300.014 51 300l44.87-28a49.57 49.57 0 000-43.92V228z" fill="#FFCD03"/><path fill="#FFF" d="M131 250l-35.13 21.96L51 300v100l160-100V200z"/></g></svg>