<svg width="147" height="289" xmlns="http://www.w3.org/2000/svg"><defs><filter x="-8.6%" y="-4.3%" width="117.3%" height="108.5%" filterUnits="objectBoundingBox" id="a"><feOffset dy="2" in="SourceAlpha" result="shadowOffsetOuter1"/><feGaussianBlur stdDeviation="2" in="shadowOffsetOuter1" result="shadowBlurOuter1"/><feColorMatrix values="0 0 0 0 0 0 0 0 0 0 0 0 0 0 0 0 0 0 0.5 0" in="shadowBlurOuter1" result="shadowMatrixOuter1"/><feMerge><feMergeNode in="shadowMatrixOuter1"/><feMergeNode in="SourceGraphic"/></feMerge></filter></defs><g filter="url(#a)" transform="translate(4 2)" fill="#000" fill-rule="evenodd"><path d="M.993 86.968V80.71H.552c-.165 0-.552-.184-.552-.33V61.274c0-.145.387-.33.552-.33h.44V44.803h-.33c-.304 0-.662-.334-.662-.659v-8.565c0-.325.358-.659.662-.659h.33V15.154C.993 6.784 7.958 0 16.218 0H122.12c8.476 0 15.224 6.785 15.224 15.154v45.79h1.192c.315 0 .463.184.463.33V80.38c0 .145-.148.33-.463.33h-1.192v185.136c0 8.419-6.748 15.154-15.224 15.154H16.217c-8.26 0-15.224-6.735-15.224-15.154V106.734H.552c-.165 0-.552-.184-.552-.33V87.298c0-.145.387-.33.552-.33h.44z"/></g></svg>